<?xml version="1.0" standalone="no"?>
<!DOCTYPE svg PUBLIC "-//W3C//DTD SVG 20010904//EN"
 "http://www.w3.org/TR/2001/REC-SVG-20010904/DTD/svg10.dtd">
<svg version="1.0" xmlns="http://www.w3.org/2000/svg"
 width="1080.000000pt" height="1080.000000pt" viewBox="0 0 1080.000000 1080.000000"
 preserveAspectRatio="xMidYMid meet">
<metadata>
Created by potrace 1.14, written by Peter Selinger 2001-2017
</metadata>
<g transform="translate(0.000000,1080.000000) scale(0.100000,-0.100000)"
fill="#000000" stroke="none">
<path d="M5496 10141 c-4 -6 -12 -9 -17 -6 -5 4 -9 1 -9 -4 0 -6 -5 -11 -11
-11 -5 0 -8 4 -5 8 3 5 -1 9 -9 9 -8 0 -12 -4 -9 -9 3 -4 -4 -8 -15 -8 -32 0
-35 -1 -50 -13 -12 -10 -13 -9 -7 3 4 9 1 8 -7 -2 -16 -21 -32 -24 -21 -5 5 8
2 8 -9 -2 -9 -7 -17 -10 -17 -7 0 4 -10 1 -22 -6 -13 -6 -29 -13 -35 -14 -7
-1 -20 -9 -29 -18 -8 -9 -20 -14 -25 -11 -5 4 -9 -1 -9 -10 0 -9 -4 -14 -9
-10 -5 3 -16 -2 -25 -11 -9 -8 -21 -12 -27 -8 -7 4 -9 3 -6 -3 8 -13 -28 -26
-62 -23 -16 1 -21 -2 -15 -11 5 -9 2 -10 -10 -6 -10 4 -26 2 -37 -3 -13 -8
-19 -7 -19 0 0 8 -6 8 -20 0 -15 -8 -20 -8 -20 1 0 8 -4 8 -15 -1 -8 -7 -15
-8 -15 -3 0 5 -9 9 -20 9 -11 0 -20 -4 -20 -9 0 -5 -6 -4 -14 2 -11 9 -15 9
-19 -1 -4 -10 -6 -10 -6 1 -1 11 -4 11 -16 1 -12 -10 -15 -10 -15 0 0 10 -3
10 -14 1 -11 -9 -15 -9 -19 1 -4 10 -6 10 -6 -1 -1 -11 -4 -11 -16 -1 -10 9
-15 9 -15 1 0 -6 -5 -11 -11 -11 -5 0 -8 4 -5 8 4 7 -28 8 -44 2 -3 -1 -8 -2
-12 -1 -5 0 -8 -3 -8 -7 0 -5 -18 -8 -40 -8 -22 1 -40 -3 -40 -8 0 -5 -6 -3
-14 3 -10 8 -16 9 -21 1 -3 -6 -10 -8 -15 -5 -4 3 -23 -2 -42 -10 -26 -10 -38
-11 -46 -3 -9 9 -12 9 -12 -1 0 -10 -3 -11 -13 -2 -10 8 -17 7 -25 -1 -9 -9
-12 -9 -12 3 0 9 -8 5 -20 -11 -11 -14 -20 -19 -20 -11 0 11 -3 11 -15 1 -8
-7 -15 -9 -15 -5 0 4 -6 3 -13 -3 -7 -6 -18 -7 -26 -3 -15 9 -53 3 -47 -8 3
-4 -5 -8 -16 -8 -12 -1 -25 -8 -29 -15 -5 -7 -9 -9 -9 -5 0 5 -8 1 -17 -9 -10
-10 -19 -12 -21 -6 -2 6 -17 3 -38 -10 -21 -12 -34 -16 -34 -8 0 7 -6 5 -16
-4 -8 -9 -19 -14 -24 -11 -5 3 -11 1 -15 -4 -3 -6 -13 -7 -22 -4 -10 4 -14 2
-10 -4 8 -12 -20 -26 -33 -18 -5 3 -16 -5 -24 -17 -9 -12 -16 -18 -16 -13 0 5
-5 4 -11 -2 -6 -6 -18 -9 -25 -6 -8 3 -17 -2 -20 -11 -3 -9 -10 -13 -15 -10
-5 3 -9 1 -9 -4 0 -6 -12 -15 -27 -21 -36 -13 -81 -41 -105 -64 -10 -10 -23
-15 -28 -12 -6 4 -10 0 -10 -7 0 -14 -40 -44 -53 -40 -5 1 -6 -2 -2 -8 3 -5
-1 -13 -9 -16 -9 -3 -13 -10 -10 -15 3 -5 -1 -9 -9 -9 -8 0 -31 -16 -51 -35
-21 -19 -35 -35 -32 -35 3 0 -10 -16 -29 -36 -19 -20 -35 -41 -35 -47 0 -5 -3
-8 -6 -5 -8 8 -74 -54 -74 -69 0 -7 -6 -13 -14 -13 -8 0 -18 -9 -21 -20 -4
-11 -11 -18 -16 -14 -5 3 -9 2 -8 -3 4 -22 -3 -41 -21 -61 -12 -12 -18 -22
-15 -22 3 0 -2 -11 -11 -25 -12 -18 -13 -25 -4 -25 10 0 9 -5 -2 -17 -23 -27
-33 -47 -20 -39 8 5 10 2 6 -8 -3 -9 -10 -16 -15 -16 -4 0 -6 -7 -2 -16 3 -9
0 -20 -7 -24 -7 -4 -12 -19 -11 -34 3 -61 0 -86 -11 -86 -5 0 -7 -4 -4 -8 3
-5 -1 -20 -9 -35 -7 -14 -11 -28 -8 -31 3 -3 -2 -17 -11 -31 -9 -14 -12 -25
-6 -25 12 0 9 -22 -5 -32 -6 -5 -5 -8 4 -8 10 0 11 -3 2 -14 -13 -15 -21 -127
-9 -120 4 3 8 0 8 -5 0 -6 -4 -11 -9 -11 -13 0 -8 -34 7 -43 7 -5 10 -12 7
-17 -3 -4 -1 -19 4 -33 7 -17 6 -28 -2 -37 -9 -10 -9 -11 1 -6 7 4 12 1 12 -8
0 -9 -5 -16 -11 -16 -8 0 -8 -4 -2 -12 6 -7 9 -21 8 -30 -2 -10 1 -18 6 -18 6
0 7 -4 4 -10 -3 -5 -1 -10 5 -10 6 0 8 -4 5 -10 -3 -5 -1 -10 6 -10 8 0 8 -4
-1 -15 -7 -8 -8 -15 -3 -15 5 0 9 -14 8 -30 -1 -17 4 -35 11 -41 8 -6 11 -15
8 -21 -3 -5 2 -20 10 -33 11 -16 12 -25 5 -25 -8 0 -8 -4 1 -15 16 -19 22 -65
9 -65 -6 0 -7 -4 -4 -10 3 -5 1 -10 -6 -10 -9 0 -9 -3 0 -14 10 -11 8 -17 -6
-25 -10 -6 -15 -11 -11 -11 4 0 -8 -16 -27 -36 -37 -37 -44 -50 -22 -39 6 4 5
1 -4 -7 -16 -14 -33 -48 -31 -60 1 -5 -3 -8 -9 -8 -5 0 -7 -4 -4 -10 3 -5 1
-10 -6 -10 -7 0 -10 -3 -7 -6 3 -3 -5 -17 -18 -31 -14 -15 -23 -31 -21 -37 2
-6 -8 -21 -21 -33 -16 -15 -20 -23 -11 -24 8 0 4 -5 -8 -11 -19 -9 -37 -40
-34 -60 0 -3 -6 -12 -14 -18 -8 -7 -15 -19 -15 -26 0 -8 -4 -14 -10 -14 -5 0
-10 -7 -10 -15 0 -8 -3 -15 -7 -15 -5 0 -21 -27 -38 -60 -16 -33 -33 -60 -38
-60 -4 0 -6 -4 -3 -9 3 -5 -4 -20 -15 -35 -11 -14 -17 -26 -13 -26 4 0 0 -6
-11 -13 -10 -8 -15 -19 -12 -24 4 -6 0 -13 -8 -17 -8 -3 -15 -12 -15 -21 0 -8
-4 -15 -9 -15 -8 0 -24 -37 -22 -52 1 -5 -6 -8 -14 -8 -9 0 -12 -6 -8 -17 4
-11 3 -14 -5 -9 -7 4 -12 2 -12 -4 0 -6 -7 -18 -15 -27 -8 -8 -13 -19 -10 -24
4 -5 1 -9 -4 -9 -6 0 -11 -7 -11 -15 0 -8 -5 -15 -11 -15 -5 0 -7 -4 -4 -10 3
-5 1 -10 -6 -10 -7 0 -10 -3 -6 -6 6 -6 -6 -24 -35 -52 -10 -9 -18 -21 -18
-27 0 -5 5 -3 10 5 6 9 10 10 10 3 0 -6 -5 -15 -10 -18 -8 -5 -7 -11 1 -21 6
-8 8 -14 5 -14 -4 0 -2 -9 4 -20 6 -12 7 -20 1 -20 -10 0 38 -93 51 -98 4 -2
6 -8 2 -13 -3 -5 1 -9 8 -9 9 0 9 -3 -2 -10 -9 -6 -10 -10 -3 -10 6 0 15 -10
19 -22 4 -13 5 -23 3 -23 -2 0 11 -15 29 -34 18 -19 30 -36 28 -39 -3 -2 7
-16 22 -31 15 -15 28 -34 30 -42 2 -8 8 -15 13 -17 5 -2 9 -9 9 -16 0 -7 9
-21 19 -30 11 -10 17 -24 15 -31 -3 -7 2 -15 10 -18 9 -4 16 -13 16 -22 0 -8
5 -15 12 -15 6 0 8 -3 5 -7 -4 -3 2 -13 14 -21 11 -8 18 -20 15 -28 -3 -8 -1
-14 4 -14 6 0 10 -6 10 -12 1 -7 14 -29 30 -48 17 -19 30 -42 30 -52 0 -10 7
-18 15 -18 14 0 19 -12 16 -32 0 -5 4 -8 9 -8 6 0 10 -5 10 -11 0 -5 -6 -7
-12 -4 -7 4 -5 0 5 -8 9 -8 17 -19 17 -26 0 -6 7 -11 16 -11 10 0 14 -6 10
-15 -3 -8 -1 -15 4 -15 6 0 10 -7 10 -15 0 -8 7 -15 17 -15 9 0 14 -3 10 -6
-9 -9 16 -33 28 -26 6 3 7 2 3 -3 -10 -11 18 -61 44 -79 12 -9 18 -16 13 -16
-6 0 -2 -7 8 -14 10 -8 19 -18 19 -23 1 -17 21 -53 30 -53 4 0 8 -9 8 -20 0
-11 5 -20 10 -20 6 0 10 -7 10 -15 0 -8 5 -15 10 -15 6 0 10 -6 10 -13 0 -7 9
-19 20 -27 14 -10 16 -16 7 -22 -9 -6 -9 -8 1 -8 6 0 12 -6 12 -14 0 -8 7 -17
16 -20 8 -3 12 -10 9 -16 -3 -5 -1 -10 4 -10 6 0 11 -7 11 -15 0 -8 4 -15 10
-15 5 0 7 -7 4 -15 -4 -10 0 -15 11 -15 9 0 14 -4 10 -9 -3 -5 2 -16 10 -24 8
-9 15 -20 15 -26 0 -6 5 -11 10 -11 6 0 10 -7 10 -15 0 -8 5 -15 11 -15 5 0 8
-4 4 -9 -3 -5 0 -15 7 -23 7 -7 14 -19 16 -27 1 -7 9 -20 17 -28 9 -8 13 -19
10 -24 -4 -5 -1 -9 5 -9 6 0 9 -4 5 -9 -3 -5 2 -16 10 -25 9 -9 15 -21 13 -28
-3 -14 29 -67 51 -84 8 -6 11 -15 8 -21 -3 -5 11 -27 31 -49 20 -21 46 -58 56
-81 11 -24 23 -43 28 -43 5 0 6 -4 3 -10 -3 -5 -1 -10 6 -10 7 0 10 -3 6 -6
-3 -3 3 -15 14 -27 10 -11 19 -29 19 -39 0 -11 4 -17 9 -13 5 3 12 -4 16 -15
4 -11 11 -18 16 -15 5 3 6 -1 3 -9 -4 -9 -1 -16 6 -16 7 0 10 -6 7 -14 -4 -9
13 -30 41 -55 25 -23 42 -41 37 -41 -5 0 0 -7 11 -16 10 -8 12 -12 4 -8 -11 6
-10 2 3 -13 9 -11 14 -23 10 -26 -3 -4 -1 -7 5 -7 7 0 12 -4 12 -9 0 -10 41
-61 78 -96 12 -12 22 -29 22 -38 0 -9 8 -21 18 -26 9 -6 13 -11 8 -11 -5 0 3
-9 18 -21 14 -11 24 -25 21 -30 -4 -5 -1 -9 6 -9 7 0 10 -3 6 -6 -3 -3 3 -15
13 -27 11 -11 17 -24 14 -29 -3 -4 2 -11 10 -14 9 -3 13 -11 10 -16 -4 -5 3
-23 15 -39 11 -15 21 -33 21 -39 0 -5 6 -10 14 -10 7 0 19 -13 25 -28 7 -15
24 -41 39 -57 15 -16 27 -33 27 -38 0 -4 5 -11 10 -15 19 -14 56 -73 51 -81
-3 -5 0 -11 7 -14 6 -3 21 -19 31 -37 10 -18 13 -30 6 -25 -9 6 -10 3 -1 -12
6 -11 7 -23 4 -27 -3 -3 2 -6 13 -6 14 0 16 -2 5 -9 -7 -5 -9 -10 -4 -12 15
-6 53 -66 53 -83 0 -9 5 -16 10 -16 6 0 10 -15 10 -34 0 -18 6 -39 14 -45 8
-7 12 -21 9 -32 -4 -12 1 -25 13 -34 15 -11 16 -14 4 -15 -13 0 -13 -1 0 -10
12 -8 12 -10 1 -10 -11 0 -9 -5 5 -22 12 -13 13 -18 4 -13 -13 7 -13 6 -2 -7
7 -9 12 -20 10 -24 -1 -5 3 -19 10 -31 8 -14 8 -23 1 -25 -5 -2 0 -14 13 -27
15 -16 18 -26 10 -29 -7 -2 -9 -9 -5 -15 8 -12 13 -30 17 -59 1 -9 8 -23 15
-32 8 -9 9 -16 4 -16 -6 0 -8 -11 -5 -25 2 -14 9 -25 14 -25 6 0 5 -7 -2 -15
-7 -8 -8 -15 -3 -15 5 0 10 -6 10 -12 0 -7 4 -22 8 -33 6 -16 5 -17 -4 -5 -8
11 -9 7 -5 -20 4 -19 11 -43 16 -52 6 -12 5 -18 -2 -18 -6 0 -3 -11 6 -25 9
-14 12 -25 8 -25 -5 0 -2 -5 6 -10 11 -7 11 -10 2 -10 -7 0 -2 -11 13 -26 14
-14 23 -30 20 -35 -4 -5 -2 -9 2 -9 5 0 9 -9 9 -20 0 -11 -4 -20 -9 -20 -5 0
-5 -6 2 -13 8 -10 7 -17 -1 -25 -9 -9 -9 -12 2 -12 12 0 12 -2 2 -9 -8 -4 -14
-12 -14 -17 -2 -23 -11 -44 -19 -44 -5 0 -9 -5 -9 -11 0 -5 4 -8 8 -5 5 3 5
-17 2 -44 -4 -29 -2 -54 4 -60 7 -7 6 -10 -4 -10 -7 0 -10 -3 -7 -7 4 -3 2
-12 -4 -20 -9 -10 -8 -13 1 -13 10 0 10 -3 0 -15 -10 -12 -10 -15 0 -15 9 0 9
-4 -1 -17 -11 -13 -11 -15 -1 -9 11 7 11 4 1 -12 -7 -12 -17 -19 -21 -16 -4 3
-5 -2 -2 -10 3 -9 1 -16 -6 -16 -6 0 -8 -4 -5 -10 3 -5 1 -10 -5 -10 -6 0 -8
-4 -5 -10 7 -12 -35 -71 -47 -64 -7 5 -13 -17 -9 -38 0 -5 -3 -8 -8 -8 -5 0
-8 -8 -6 -17 1 -10 -2 -24 -8 -30 -6 -9 -6 -13 3 -13 9 0 7 -8 -5 -26 -9 -15
-12 -23 -6 -20 6 4 11 5 11 1 0 -7 -50 -28 -74 -31 -11 -1 -28 -12 -38 -24
-10 -12 -18 -18 -19 -14 0 5 -5 -2 -11 -16 -6 -14 -10 -31 -9 -38 1 -6 -3 -12
-9 -12 -5 0 -10 -6 -10 -13 0 -7 -9 -13 -20 -14 -11 -1 -20 3 -20 8 0 6 -4 8
-9 5 -5 -4 -11 -2 -13 4 -1 5 -15 11 -30 12 -16 1 -28 6 -28 11 0 4 -4 5 -10
2 -5 -3 -10 -1 -10 5 0 7 -7 10 -15 6 -8 -3 -15 -2 -15 3 0 4 -12 13 -26 19
-20 10 -24 9 -18 0 4 -7 -6 -3 -22 8 -16 12 -44 27 -61 35 -18 8 -33 17 -33
20 0 3 -15 6 -32 7 -58 3 -79 8 -88 21 -6 11 -9 11 -13 0 -4 -11 -6 -11 -6 -1
-1 7 -5 10 -11 7 -6 -3 -10 0 -10 7 0 9 -3 9 -10 -2 -5 -8 -10 -10 -10 -5 0 6
-15 16 -32 24 -18 8 -41 23 -51 35 -10 11 -16 15 -12 9 11 -22 -13 -14 -42 13
-32 30 -89 62 -78 44 5 -7 -1 -7 -14 2 -12 7 -24 21 -27 30 -3 10 -10 18 -16
18 -5 0 -8 7 -4 15 3 8 0 15 -6 15 -7 0 -6 5 2 15 9 10 9 15 1 15 -6 0 -11 10
-11 21 0 16 -5 20 -18 17 -10 -3 -23 1 -30 9 -7 7 -17 11 -23 8 -5 -4 -9 -2
-9 3 0 6 -10 8 -22 4 -14 -3 -19 -2 -14 6 4 7 0 12 -10 12 -10 0 -14 3 -11 7
10 9 -54 53 -67 45 -41 -26 -102 3 -92 43 6 25 -34 67 -53 56 -19 -12 -119
-13 -126 -1 -3 6 -11 8 -16 5 -5 -4 -9 1 -9 10 0 9 -4 14 -9 11 -9 -6 -7 37 3
52 3 5 -1 15 -9 22 -8 7 -13 16 -10 20 3 5 -4 11 -15 15 -11 4 -18 10 -16 14
5 7 -9 11 -46 12 -10 0 -18 5 -18 10 0 6 -4 8 -9 4 -5 -3 -13 -1 -16 5 -5 8
-11 7 -21 -1 -11 -9 -14 -8 -14 2 0 10 -3 10 -12 1 -9 -9 -16 -8 -30 5 -13 12
-18 13 -18 3 0 -9 -6 -8 -20 5 -13 12 -20 14 -20 5 0 -10 -3 -10 -14 -1 -10 8
-16 9 -21 1 -4 -7 -12 -7 -26 0 -10 6 -19 7 -19 2 0 -5 -11 -8 -25 -7 -14 2
-25 -1 -25 -6 0 -6 -4 -7 -10 -4 -5 3 -10 2 -10 -4 0 -5 -9 -13 -20 -16 -11
-4 -18 -10 -16 -14 3 -4 -4 -12 -15 -19 -16 -10 -19 -9 -19 4 0 8 -5 12 -10 9
-6 -3 -10 -3 -10 2 0 4 -12 17 -27 27 -16 12 -23 14 -18 5 5 -9 1 -8 -11 3
-19 17 -21 17 -37 -2 -15 -18 -16 -47 -2 -70 3 -6 2 -10 -3 -10 -5 0 -6 -14
-4 -31 3 -20 1 -30 -6 -25 -9 6 -27 -21 -24 -36 1 -5 -5 -8 -14 -8 -10 0 -14
-5 -10 -16 3 -8 2 -12 -4 -9 -5 3 -17 -7 -27 -22 -10 -15 -23 -34 -30 -41 -7
-7 -13 -20 -13 -28 0 -8 -5 -14 -11 -14 -5 0 -7 -4 -4 -10 3 -5 1 -10 -6 -10
-8 0 -8 -4 1 -15 10 -12 10 -15 -1 -15 -8 -1 -3 -7 11 -15 14 -8 21 -14 17
-15 -5 0 1 -12 13 -27 13 -17 17 -29 10 -31 -8 -3 -8 -8 1 -18 6 -7 9 -21 5
-29 -3 -8 -1 -15 5 -15 6 0 3 -7 -5 -16 -9 -8 -14 -19 -11 -24 3 -5 1 -11 -4
-15 -6 -3 -7 -13 -4 -23 3 -9 2 -14 -2 -10 -5 5 -16 -4 -25 -20 -12 -19 -14
-29 -6 -34 8 -5 7 -8 -1 -8 -7 0 -10 -7 -6 -17 4 -10 2 -14 -5 -9 -7 4 -10 -1
-7 -14 2 -12 -2 -23 -10 -27 -8 -3 -15 -9 -15 -15 0 -5 6 -6 13 -1 6 4 4 -5
-5 -19 -13 -20 -14 -28 -5 -31 9 -4 9 -8 -2 -15 -10 -7 -10 -11 -1 -17 9 -6 9
-10 -1 -16 -12 -7 -12 -9 0 -9 11 0 11 -3 0 -16 -8 -9 -9 -18 -3 -22 14 -10
10 -92 -5 -102 -11 -6 -11 -9 0 -13 8 -3 9 -6 2 -6 -15 -1 -5 -38 19 -73 10
-14 18 -34 18 -43 0 -9 4 -14 8 -11 5 3 16 -11 25 -30 9 -19 24 -37 32 -40 8
-4 15 -12 15 -19 0 -7 15 -20 33 -29 50 -25 71 -40 80 -54 5 -7 12 -10 18 -7
5 4 9 -1 9 -10 0 -9 4 -14 8 -11 5 3 19 -5 30 -17 46 -47 62 -60 62 -48 0 9 3
9 14 -1 8 -7 12 -16 9 -20 -2 -5 3 -8 11 -8 9 0 16 -5 16 -11 0 -5 4 -8 9 -5
5 3 21 -7 37 -22 15 -15 24 -20 19 -12 -5 8 8 0 30 -19 21 -18 51 -38 67 -43
15 -5 28 -16 28 -23 0 -8 9 -17 20 -20 11 -3 20 -11 20 -16 0 -6 5 -7 12 -3 6
4 16 1 22 -7 20 -25 60 -55 52 -39 -5 8 3 3 16 -12 13 -15 31 -28 38 -30 19
-4 39 -21 34 -29 -2 -3 8 -5 21 -3 14 1 25 -2 25 -7 0 -5 8 -12 17 -16 10 -3
33 -17 52 -31 19 -14 31 -20 27 -14 -5 8 -2 10 8 6 9 -3 16 -10 16 -15 0 -5 7
-9 16 -9 8 0 12 -4 9 -10 -3 -5 3 -10 14 -10 11 0 23 -5 27 -11 3 -6 15 -8 26
-6 11 3 21 0 24 -8 3 -7 19 -19 35 -25 16 -7 29 -17 29 -22 0 -5 5 -6 10 -3 5
3 10 1 10 -5 0 -6 5 -8 10 -5 6 3 10 1 10 -6 0 -9 3 -9 14 0 11 9 15 8 20 -5
4 -9 9 -14 13 -10 3 3 12 -3 20 -14 15 -22 39 -28 27 -8 -4 7 2 5 14 -5 11
-11 26 -16 31 -12 6 3 11 1 11 -5 0 -6 5 -8 11 -5 6 4 17 -3 26 -14 10 -15 21
-20 34 -16 11 4 19 2 19 -5 0 -7 7 -10 15 -6 8 3 15 0 15 -6 0 -6 3 -9 6 -5 9
9 41 -27 36 -41 -2 -6 2 -12 9 -12 11 0 11 -3 -1 -10 -13 -9 -13 -10 0 -10 13
0 13 -1 0 -10 -11 -7 -11 -10 -2 -10 7 0 10 -4 7 -10 -3 -5 -3 -16 2 -22 11
-18 10 -42 -2 -50 -6 -5 -5 -8 4 -8 11 0 11 -3 1 -15 -9 -11 -9 -15 -1 -15 9
0 9 -5 1 -20 -8 -15 -8 -20 2 -20 9 0 9 -3 -2 -10 -12 -8 -12 -10 -1 -10 8 0
11 -3 8 -7 -4 -4 5 -20 20 -36 16 -17 21 -26 13 -22 -8 4 -5 -2 7 -13 12 -12
34 -24 50 -26 15 -3 29 -10 31 -16 2 -5 8 -8 13 -4 5 3 9 -2 9 -11 0 -9 4 -14
9 -10 5 3 12 1 16 -5 4 -6 10 -8 15 -5 5 3 16 -2 24 -11 9 -8 16 -12 16 -8 0
3 7 1 15 -6 12 -10 15 -10 15 1 0 11 2 11 10 -1 5 -8 10 -11 10 -6 0 5 6 3 13
-3 8 -6 17 -8 20 -4 4 3 13 0 22 -7 12 -10 15 -10 15 1 0 11 2 11 10 -1 8 -12
10 -12 10 -1 0 11 4 11 18 -2 10 -10 28 -17 40 -17 11 0 24 -5 27 -10 4 -7 13
-7 26 0 10 6 19 7 19 2 0 -5 7 -9 15 -9 8 0 15 4 15 9 0 5 9 4 19 -2 14 -7 22
-7 26 0 5 8 11 7 21 -1 9 -7 14 -8 14 -1 0 7 10 8 30 2 19 -5 30 -5 30 1 0 6
5 7 10 4 6 -4 17 -1 25 5 12 10 18 10 30 0 10 -9 15 -9 15 -1 0 6 5 11 11 11
5 0 8 -4 5 -8 -3 -4 9 -7 26 -6 17 1 35 8 39 16 7 10 9 10 9 -2 0 -12 2 -12 9
-1 6 10 10 10 16 1 6 -9 10 -9 16 1 7 12 9 12 9 0 0 -9 4 -10 13 -4 6 6 33 10
60 9 26 -1 47 3 47 8 0 5 3 6 7 3 3 -4 13 -1 21 6 13 10 14 9 7 -3 -6 -12 -5
-13 6 -2 7 6 28 12 46 12 18 0 33 4 33 8 0 9 62 47 73 44 4 -1 7 2 7 6 0 5 6
9 13 10 16 2 71 11 89 14 7 2 16 8 20 13 5 6 8 5 8 -4 0 -11 3 -11 15 -1 12
10 15 10 15 0 0 -9 4 -9 17 1 15 12 16 12 8 -1 -8 -13 -7 -13 8 -1 13 10 17
10 17 1 0 -10 3 -10 15 0 12 10 15 10 15 0 0 -9 3 -10 13 -1 8 6 17 8 20 4 4
-3 7 -1 7 5 0 6 7 9 14 6 14 -5 26 2 59 32 6 6 19 9 29 6 9 -2 29 5 44 17 14
11 30 18 35 15 5 -3 9 -1 9 4 0 8 55 25 64 19 1 -1 11 5 21 13 16 13 18 13 10
0 -5 -8 4 -4 20 8 22 17 30 20 37 10 6 -10 10 -10 17 1 5 8 16 11 25 8 9 -4
16 -2 16 4 0 6 4 8 9 4 5 -3 12 -1 16 4 3 6 12 8 20 4 9 -3 26 2 40 11 13 9
28 16 32 16 4 0 1 -5 -7 -10 -9 -6 -10 -10 -3 -10 6 0 15 5 19 11 4 8 9 7 15
-2 6 -10 9 -11 9 -1 0 6 7 12 15 12 8 0 15 5 15 10 0 7 6 7 18 1 13 -7 23 -6
30 1 9 9 12 9 12 1 0 -9 10 -8 34 2 18 8 36 11 40 8 3 -4 6 -2 6 4 0 9 6 11
49 15 11 1 17 6 15 10 -3 4 0 8 5 8 19 0 26 2 44 11 11 7 17 6 17 -1 0 -8 6
-8 20 0 11 6 25 8 30 5 6 -3 10 -1 10 5 0 8 6 8 20 0 11 -6 20 -7 20 -2 0 4
12 7 28 7 16 -1 35 7 45 19 10 12 15 14 11 6 -7 -13 -5 -13 9 -1 13 10 17 11
17 1 0 -9 7 -7 20 5 11 10 20 15 20 11 0 -4 10 -2 21 5 17 9 23 8 30 -2 7 -12
9 -12 9 0 0 8 3 12 6 8 4 -3 12 0 19 7 7 7 26 11 43 10 20 -1 33 4 36 13 5 12
9 13 21 3 9 -7 15 -8 15 -2 0 5 11 12 25 14 13 3 22 1 19 -3 -3 -5 -1 -9 5 -9
5 0 11 6 13 12 3 7 18 11 37 10 18 -1 30 2 27 7 -3 5 3 7 14 4 12 -3 29 2 42
13 12 11 18 13 13 5 -6 -11 -5 -12 6 -5 8 5 28 10 44 11 17 0 33 2 36 2 4 1
18 12 32 26 18 19 27 22 31 13 5 -10 7 -10 12 0 3 6 15 12 25 12 11 0 17 4 14
10 -3 6 1 7 9 4 9 -4 16 -1 16 6 0 7 7 10 15 6 8 -3 15 -1 15 4 0 5 11 7 24 4
15 -2 26 2 30 12 3 8 10 12 16 9 5 -3 10 -1 10 6 0 7 3 9 7 6 3 -4 12 -2 19 4
8 6 21 9 29 5 8 -3 15 -1 15 5 0 6 7 3 16 -5 8 -9 20 -16 25 -16 6 0 8 -4 5
-9 -3 -5 6 -12 21 -16 17 -4 29 -2 31 4 2 6 8 9 13 5 5 -3 9 0 9 6 0 6 5 8 10
5 6 -3 10 -2 10 2 0 5 13 16 29 26 27 16 29 16 46 -3 19 -21 45 -27 45 -11 0
16 50 4 64 -14 21 -30 61 -29 80 0 12 18 13 25 4 25 -10 0 -10 2 1 9 10 6 10
10 1 16 -9 6 -9 10 1 16 11 7 11 9 1 9 -27 0 37 53 67 55 16 1 36 7 45 14 17
14 18 61 1 61 -5 0 -3 5 5 10 8 5 11 10 6 10 -5 0 -2 7 5 16 13 16 58 39 72
36 4 -1 7 3 7 9 0 5 4 8 8 5 11 -6 9 25 -3 43 -6 10 -4 12 4 6 10 -6 11 -3 2
13 -6 12 -17 25 -25 29 -7 4 -21 20 -31 36 -13 21 -14 27 -4 27 12 0 12 2 1 9
-11 7 -11 9 2 14 9 4 16 14 16 22 0 9 3 14 8 12 4 -3 16 4 26 14 11 11 14 19
7 19 -9 0 -9 5 -1 20 8 15 8 20 -1 20 -6 0 -9 7 -5 15 3 9 0 15 -8 15 -16 0
-16 57 0 68 15 11 11 25 -17 55 -14 16 -25 38 -23 50 1 12 3 26 3 30 1 5 5 6
10 2 5 -3 13 5 17 17 4 13 12 26 18 30 8 6 7 8 -1 8 -7 0 -13 5 -13 11 0 5 6
7 13 4 6 -4 3 0 -8 9 -31 24 -65 60 -65 69 0 5 -9 22 -21 38 -24 34 -32 66
-18 74 5 4 7 10 4 15 -3 5 -1 11 5 15 6 4 8 11 5 16 -4 5 -2 9 4 9 13 0 42 55
34 64 -4 3 -1 6 7 6 10 0 10 3 0 15 -10 12 -10 15 1 15 8 0 4 9 -9 23 -12 13
-22 27 -22 31 0 4 -9 16 -20 28 -20 21 -29 64 -11 54 5 -4 7 3 4 14 -3 12 0
20 8 20 7 0 9 3 6 7 -4 3 -1 13 6 21 10 13 9 14 -1 8 -9 -5 -13 -3 -11 5 6 35
-54 88 -85 76 -7 -3 -19 3 -26 13 -8 11 -17 17 -22 14 -4 -3 -8 2 -8 10 0 9
-3 16 -7 16 -5 0 -16 14 -25 30 -10 18 -13 30 -6 30 7 0 6 5 -2 15 -10 12 -10
15 1 15 11 0 11 2 -1 10 -11 7 -11 10 -2 10 9 0 10 5 2 19 -7 14 -6 21 3 24 9
4 9 6 -1 6 -7 1 -10 6 -7 11 3 6 -1 10 -10 10 -10 0 -13 5 -9 12 4 6 3 8 -4 4
-6 -3 -13 -2 -17 4 -4 7 -12 7 -24 0 -10 -5 -21 -6 -25 -3 -3 3 -6 1 -6 -7 0
-10 -3 -10 -15 0 -8 7 -15 10 -15 6 0 -3 -11 -1 -25 4 -16 6 -25 6 -25 0 0 -5
-6 -7 -14 -4 -9 3 -17 -3 -21 -16 -5 -15 -12 -19 -27 -14 -14 4 -18 2 -14 -5
5 -7 1 -9 -8 -5 -10 4 -16 1 -16 -7 0 -7 -10 -3 -25 11 -13 12 -22 27 -19 31
3 5 -1 9 -8 9 -9 0 -9 3 2 10 10 6 11 10 3 10 -7 0 -13 6 -13 13 0 18 -31 18
-48 0 -8 -7 -18 -11 -23 -8 -5 4 -9 2 -9 -4 0 -22 -42 -23 -61 -2 -11 12 -15
21 -9 21 5 0 1 9 -10 20 -11 11 -20 25 -20 31 0 5 -4 8 -8 5 -4 -2 -8 4 -8 14
0 10 3 17 6 15 11 -7 3 44 -9 59 -9 11 -10 16 -2 16 6 0 11 5 11 11 0 5 -4 8
-9 5 -4 -3 -6 6 -3 19 3 17 0 25 -9 25 -11 0 -11 2 1 10 8 5 10 10 5 10 -6 0
-11 9 -11 20 0 11 4 20 7 20 4 0 4 14 -1 30 -5 17 -5 30 -1 30 3 0 7 9 7 20 0
11 -4 20 -9 20 -5 0 -4 6 2 13 6 8 8 17 4 20 -3 4 -1 7 6 7 9 0 9 5 1 20 -8
15 -8 20 1 20 8 0 9 4 0 13 -6 8 -8 17 -4 20 3 4 2 7 -3 7 -13 0 -16 78 -4
101 8 14 7 19 -2 19 -9 0 -9 3 2 10 12 8 12 10 1 10 -8 0 -12 3 -8 6 3 3 2 17
-3 30 -5 13 -5 26 -1 29 5 3 8 16 6 30 -1 14 2 25 7 25 5 0 4 8 -1 19 -6 10
-7 21 -4 25 11 11 12 36 1 36 -6 0 -5 6 2 15 7 9 10 18 6 22 -3 3 -6 0 -6 -7
0 -7 -3 -10 -6 -7 -4 4 -1 13 6 22 9 11 9 15 1 15 -8 0 -9 5 -1 19 7 14 6 21
-3 25 -9 5 -9 7 0 12 9 4 10 11 3 24 -7 13 -7 21 0 25 8 5 7 11 -1 21 -7 9 -8
14 -1 14 7 0 8 10 2 30 -6 21 -5 30 3 30 7 0 6 4 -3 10 -11 7 -11 10 -2 10 9
0 10 5 2 19 -7 14 -7 22 0 26 8 5 7 11 -1 21 -7 9 -8 14 -1 14 7 0 8 10 2 30
-6 21 -5 30 3 30 7 0 6 4 -3 10 -11 7 -11 10 -2 10 9 0 10 5 2 19 -7 14 -7 22
0 26 8 5 7 11 -1 21 -9 11 -9 14 0 14 8 0 9 6 3 18 -11 21 -10 62 1 79 5 8 3
13 -4 13 -8 0 -9 4 0 13 8 10 7 17 -1 25 -9 9 -9 12 -1 12 8 0 9 9 3 30 -5 17
-5 30 -1 30 3 0 7 9 7 20 0 11 -5 20 -10 20 -6 0 -5 5 1 11 8 8 7 20 -3 44 -7
18 -10 35 -7 39 4 3 2 6 -3 6 -5 0 -10 9 -10 20 0 11 4 20 9 20 5 0 4 7 -3 15
-10 12 -10 15 0 15 10 0 10 3 1 14 -9 11 -9 15 1 19 10 4 10 7 1 14 -13 9 -14
53 -1 53 5 0 4 9 -2 20 -8 15 -8 20 1 20 8 0 8 4 -1 15 -7 8 -9 15 -4 15 5 0
-2 9 -16 20 -14 11 -19 20 -12 20 6 0 12 5 12 11 0 5 -4 7 -10 4 -6 -3 -7 1
-4 9 3 9 9 14 13 12 4 -3 7 4 7 14 0 10 -5 16 -10 13 -5 -4 -7 3 -4 15 4 12 0
26 -9 33 -11 10 -11 14 -1 20 11 7 11 9 0 9 -7 0 -11 4 -7 9 3 5 0 15 -7 23
-28 29 -43 52 -30 44 10 -6 10 0 -2 22 -9 17 -21 32 -28 35 -10 4 -10 6 0 6
10 1 10 6 2 21 -6 12 -7 20 -1 20 5 0 7 10 3 22 -4 15 -2 19 7 13 10 -6 11 -3
2 12 -7 14 -7 23 2 32 9 9 8 14 -3 21 -11 7 -11 10 -2 10 7 0 11 4 8 9 -3 4 5
7 17 6 12 -1 28 -3 35 -4 7 0 10 -5 7 -11 -3 -5 -1 -10 5 -10 6 0 8 -4 5 -10
-3 -5 3 -10 15 -10 12 0 19 -4 16 -8 -3 -5 1 -9 9 -9 8 0 15 5 15 11 0 5 7 1
15 -10 8 -10 15 -14 15 -7 0 7 7 10 17 6 12 -5 14 -3 7 8 -4 8 -9 19 -10 26
-1 6 -11 22 -23 34 -11 12 -18 26 -15 31 3 4 -1 11 -9 14 -16 6 -17 20 -3 43
6 9 5 12 -1 8 -5 -3 -10 0 -10 8 0 8 4 12 8 10 4 -3 9 2 12 10 3 7 24 19 45
25 22 5 45 17 52 25 9 11 17 12 31 4 13 -6 19 -6 19 1 0 5 5 10 11 10 6 0 23
9 39 20 15 11 30 17 34 13 3 -3 6 0 6 7 0 7 3 10 6 7 4 -4 19 2 34 13 16 11
32 20 37 20 4 0 17 11 27 25 10 14 25 25 32 25 8 0 14 5 14 11 0 5 4 8 8 5 4
-2 17 9 27 25 11 16 28 32 37 35 10 3 17 8 15 12 -1 4 1 8 6 10 13 4 47 42 47
53 0 5 5 7 10 4 6 -3 10 -2 10 3 0 5 15 25 33 44 54 60 75 87 69 93 -3 3 1 5
8 5 7 0 11 2 8 5 -3 3 10 21 28 39 19 19 34 41 34 50 0 9 5 16 11 16 5 0 8 4
4 9 -3 5 -1 12 5 16 6 4 8 11 5 16 -4 5 -1 9 6 9 7 0 9 3 6 7 -4 3 3 18 15 31
13 14 16 22 8 17 -8 -5 -4 4 9 18 14 15 19 27 12 27 -7 0 -9 5 -4 13 4 6 6 20
5 30 -2 10 2 16 10 15 7 -2 12 3 11 10 -2 6 1 12 7 12 5 0 7 7 4 15 -4 8 -1
15 6 15 10 0 10 3 0 15 -10 12 -10 15 0 15 10 0 10 3 1 14 -9 11 -9 15 1 19
10 4 10 8 -2 16 -12 8 -12 11 3 17 16 6 17 8 2 24 -12 13 -13 20 -5 25 9 6 9
10 -1 16 -10 6 -11 9 -1 9 6 0 12 7 12 16 0 8 3 13 8 11 4 -3 7 6 7 19 0 13
-3 24 -6 24 -13 0 -4 35 13 54 12 14 14 24 8 42 -7 16 -6 24 1 24 6 0 8 7 5
16 -3 8 -2 12 4 9 6 -3 10 -1 10 4 0 6 -5 11 -11 11 -5 0 -7 5 -4 10 3 6 1 10
-5 10 -8 0 -7 6 1 21 9 17 8 20 -3 13 -11 -6 -11 -5 1 9 10 13 10 17 1 17 -10
0 -10 3 0 15 10 12 10 15 -1 15 -10 0 -11 2 -2 8 18 11 11 55 -12 75 -11 10
-15 16 -8 13 7 -4 11 1 10 14 -1 11 -4 20 -7 20 -3 0 -6 9 -6 20 0 11 4 20 8
20 5 0 4 8 -1 19 -6 10 -7 21 -4 25 10 9 13 36 4 36 -4 0 -7 9 -7 20 0 11 4
20 7 20 4 0 4 13 -1 29 -6 21 -5 31 3 34 9 3 8 8 -1 20 -8 9 -11 21 -7 27 3 5
-1 13 -10 16 -11 5 -13 10 -5 19 8 9 7 17 -3 27 -7 7 -13 23 -12 35 1 12 -3
19 -8 16 -5 -3 -6 3 -2 16 4 13 2 21 -5 21 -6 0 -8 5 -5 10 3 6 1 10 -5 10 -7
0 -10 6 -7 14 3 8 -1 20 -9 27 -8 6 -13 17 -12 23 3 17 -13 57 -21 52 -3 -2
-6 8 -5 22 1 15 -3 33 -9 40 -5 6 -7 12 -3 12 3 0 1 11 -4 25 -6 17 -6 25 1
25 6 0 7 6 2 13 -4 6 -8 17 -8 22 -1 6 -4 17 -7 25 -17 42 -21 56 -19 63 1 5
-7 23 -17 40 -11 18 -17 38 -14 46 3 10 0 11 -9 5 -12 -6 -12 -5 -1 8 9 11 9
17 2 20 -6 2 -12 10 -13 18 -2 8 -6 21 -10 28 -5 7 -3 12 4 12 10 0 10 3 2 11
-8 8 -8 20 -3 35 7 17 6 24 -3 24 -8 0 -7 4 3 10 12 8 13 11 1 19 -9 6 -10 11
-2 15 13 9 10 76 -4 76 -7 0 -7 3 0 8 13 9 16 42 4 42 -6 0 -5 9 1 20 8 15 8
20 -2 20 -9 0 -9 3 2 10 13 9 13 10 0 10 -9 0 -11 3 -5 8 6 4 10 16 10 27 0
11 -4 23 -10 28 -6 4 -5 10 4 16 9 6 10 10 2 16 -7 4 -8 11 -3 18 13 18 12 57
-1 57 -7 0 -6 4 3 10 11 7 11 10 2 10 -7 0 -11 4 -7 9 3 5 1 12 -5 16 -6 4 -8
10 -5 15 3 5 1 11 -5 15 -14 9 -12 45 3 45 7 0 8 3 2 8 -5 4 -17 16 -25 26
-13 18 -13 19 0 11 10 -5 9 -1 -3 13 -11 11 -16 26 -12 31 3 6 -1 18 -9 27 -9
9 -14 20 -11 25 4 5 2 9 -4 9 -6 0 -8 6 -5 14 3 8 -3 27 -13 42 -10 16 -13 25
-6 21 12 -8 12 17 0 29 -4 4 -7 20 -7 36 0 15 -5 28 -11 28 -8 0 -8 5 1 15 7
8 8 15 3 15 -5 0 -10 12 -11 28 -1 15 -7 28 -12 30 -6 2 -6 10 0 23 8 14 7 19
-1 19 -7 0 -10 3 -6 6 3 4 -1 13 -9 21 -8 8 -12 19 -9 24 4 5 2 9 -4 9 -6 0
-7 7 -4 17 4 10 2 14 -4 10 -5 -3 -16 9 -23 28 -8 19 -16 35 -20 35 -3 0 -6 8
-7 18 -2 28 -27 92 -36 92 -5 0 -6 4 -2 9 3 5 -1 16 -9 24 -8 8 -12 17 -9 21
4 3 1 6 -5 6 -6 0 -13 13 -17 29 -3 15 -17 34 -30 41 -14 7 -23 15 -21 17 2 2
-12 19 -30 38 -19 19 -37 47 -40 62 -4 16 -16 36 -27 46 -11 9 -17 17 -14 17
4 0 -14 19 -38 41 -25 23 -45 48 -45 55 0 8 -7 14 -16 14 -8 0 -12 5 -9 10 6
9 -8 14 -28 11 -5 -1 -6 3 -2 9 3 5 1 10 -5 10 -6 0 -8 5 -5 10 3 6 -1 10 -9
10 -9 0 -16 5 -16 10 0 6 -5 10 -11 10 -6 0 -33 22 -60 49 -26 26 -51 46 -54
43 -3 -3 -5 0 -5 7 0 7 -4 10 -9 6 -5 -3 -16 4 -24 15 -8 12 -24 22 -35 23
-11 0 -18 5 -16 9 3 4 -1 8 -8 8 -7 0 -31 15 -53 34 -22 19 -43 32 -47 30 -4
-3 -8 0 -8 6 0 6 -3 9 -7 7 -9 -6 -74 28 -68 35 2 2 -11 10 -30 17 -19 7 -35
16 -35 21 0 5 -8 9 -17 9 -40 1 -53 5 -53 14 0 5 -7 4 -15 -3 -8 -7 -15 -8
-15 -3 0 5 -14 14 -30 20 -19 7 -28 7 -24 1 4 -6 -2 -6 -14 1 -12 6 -32 12
-46 13 -15 1 -26 6 -26 11 0 4 -4 6 -9 2 -5 -3 -17 2 -25 11 -9 8 -16 12 -16
8 0 -3 -6 -1 -13 5 -8 6 -17 8 -20 4 -4 -3 -7 -1 -7 6 0 9 -8 11 -21 8 -12 -3
-22 0 -26 9 -3 9 -21 14 -54 14 -32 0 -49 4 -49 13 0 8 -4 7 -10 -3 -7 -11
-10 -11 -10 -2 0 7 -4 10 -10 7 -5 -3 -10 -3 -10 2 0 4 -49 8 -109 8 -60 0
-104 -3 -98 -7 17 -11 3 -10 -27 2 -17 6 -26 6 -26 0 0 -6 -5 -10 -11 -10 -5
0 -8 3 -6 8 3 4 -6 8 -20 9 -19 1 -22 -1 -12 -8 8 -5 9 -9 4 -9 -6 0 -16 5
-23 12 -9 9 -12 9 -12 0 0 -7 -5 -12 -11 -12 -5 0 -8 4 -5 8 3 5 -23 8 -57 6
-39 -1 -65 2 -69 9 -5 8 -8 7 -8 -3 0 -12 -2 -12 -9 -1 -6 9 -11 10 -15 2z
m-2076 -2936 c17 -32 23 -56 18 -66 -5 -11 -2 -21 7 -29 9 -7 13 -23 11 -36
-3 -13 0 -24 6 -24 6 0 8 -9 5 -20 -3 -11 -1 -18 3 -15 5 3 11 1 15 -5 3 -5 1
-10 -5 -10 -7 0 -8 -6 -1 -19 6 -10 7 -21 4 -25 -3 -3 0 -6 7 -6 7 0 11 -3 7
-6 -3 -4 0 -13 8 -20 7 -8 12 -22 11 -31 -2 -10 5 -25 15 -34 10 -9 16 -19 12
-23 -3 -3 -1 -6 6 -6 7 0 11 -6 8 -14 -3 -7 1 -23 8 -34 8 -10 11 -22 8 -26
-3 -3 1 -6 11 -6 9 0 14 -4 11 -10 -3 -5 -1 -10 5 -10 7 0 9 -7 6 -15 -3 -9 1
-18 9 -21 9 -4 15 -19 15 -36 0 -16 4 -27 9 -24 5 4 8 -5 6 -19 -1 -14 3 -25
9 -25 6 -1 0 -7 -14 -14 -21 -12 -27 -12 -47 3 -12 9 -23 21 -23 26 0 6 -9 17
-19 25 -11 7 -18 18 -15 22 3 5 -6 18 -20 29 -14 11 -26 24 -26 29 0 12 -58
68 -65 62 -3 -3 -5 2 -5 12 0 9 -7 19 -15 22 -8 4 -13 10 -10 14 3 4 -11 24
-30 44 -19 21 -35 43 -35 49 -1 15 -35 57 -47 57 -5 0 -17 14 -26 30 -10 17
-14 30 -10 30 5 0 8 16 7 35 -1 24 5 42 21 59 13 14 20 27 17 30 -3 3 0 6 6 6
7 0 12 7 12 15 0 7 8 19 18 24 9 6 13 11 8 11 -5 0 1 11 14 25 12 13 28 23 34
22 6 -1 22 -24 36 -52z"/>
<path d="M6900 9756 c0 -2 8 -10 18 -17 15 -13 16 -12 3 4 -13 16 -21 21 -21
13z"/>
</g>
</svg>
